<svg width="225" height="227" viewBox="0 0 225 227" fill="none" xmlns="http://www.w3.org/2000/svg">
<g opacity="0.3" clip-path="url(#clip0_3163_329)">
<path d="M158.577 53.6207L163.947 47.9268C153.26 39.649 142.505 31.4423 131.683 23.3068C131.159 22.9196 130.611 22.6717 130.067 22.5623C126.272 14.8947 117.214 10.9778 108.68 13.8227C108.611 13.8385 108.584 13.8669 108.516 13.8827C107.813 14.0272 107.091 14.4216 106.491 15.2006C76.3517 53.1024 50.0725 93.9722 18.1305 130.47C17.4609 131.237 17.1673 132.062 17.1507 132.881C16.3972 134.08 15.9132 135.479 15.8228 137.061C15.4434 142.809 19.9414 148.073 24.9048 150.415C28.1393 151.959 31.6699 152.303 35.0451 151.64C37.6575 157.789 44.6162 163.76 50.5835 168.124L55.8462 162.544C50.8534 159.234 45.3619 155.023 43.917 150.352C39.505 136.078 60.4947 150.898 63.7402 153.26C63.9106 153.394 64.0801 153.5 64.2505 153.633L69.7281 147.826C63.9101 143.361 56.1886 137.826 49.1156 136.293C75.258 100.942 102.026 66.1007 129.474 31.7666C129.57 31.7223 129.665 31.6781 129.747 31.6204C139.406 38.9016 149.012 46.2398 158.577 53.6207ZM35.7008 141.312C35.1705 142.103 34.7795 142.917 34.4993 143.729C33.0853 144.171 31.6067 144.309 30.0717 143.964C27.5607 143.425 23.3224 140.772 23.8398 137.737C24.7228 132.599 32.5641 137.062 36.6195 140.08C36.299 140.477 36.0062 140.874 35.7008 141.312Z" fill="#FAF000"/>
<path d="M118.005 205.892C105.958 196.655 93.6852 187.742 81.1455 179.17C74.678 174.765 68.0905 170.515 61.5433 166.223C59.9595 165.187 57.9402 163.955 55.8462 162.544C50.8534 159.234 45.3619 155.023 43.9169 150.352C39.505 136.078 60.4947 150.898 63.7402 153.26C63.9106 153.394 64.0801 153.5 64.2505 153.634C70.713 158.33 77.1361 163.097 83.5458 167.878C96.705 177.68 109.73 187.624 122.69 197.695C125.16 199.622 128.191 198.123 129.165 195.975C129.353 195.776 129.554 195.563 129.782 195.321C156.649 160.088 183.53 124.869 210.41 89.6228C210.557 89.4663 210.634 89.2701 210.74 89.1008C211.644 87.8283 211.801 86.1471 210.511 84.7698C210.004 84.0219 209.292 83.4044 208.506 83.0939C193.76 71.23 178.907 59.5077 163.947 47.9269C153.26 39.6491 142.505 31.4424 131.683 23.3069C131.159 22.9197 130.611 22.6718 130.067 22.5624C126.272 14.8948 117.214 10.9779 108.68 13.8228C108.611 13.8386 108.584 13.867 108.516 13.8828C107.813 14.0273 107.091 14.4217 106.491 15.2007C76.3517 53.1025 50.0724 93.9723 18.1305 130.47C17.4609 131.237 17.1673 132.063 17.1506 132.881C16.3972 134.08 15.9132 135.479 15.8228 137.061C15.4434 142.809 19.9414 148.074 24.9048 150.415C28.1393 151.959 31.6699 152.303 35.0451 151.64C37.6575 157.789 44.6161 163.761 50.5835 168.124C53.4186 170.207 56.0489 171.934 57.8735 173.144C76.5534 185.383 94.8984 198.005 112.635 211.586C116.622 214.62 122.035 208.966 118.005 205.892ZM111.798 21.0937C116.997 19.7837 121.465 22.2496 123.353 26.9082C95.3441 61.9509 68.0311 97.5422 41.3988 133.641C38.2279 131 34.3975 129.001 30.3558 128.256C59.2726 93.908 83.9033 56.244 111.798 21.0937ZM30.0717 143.964C27.5607 143.425 23.3224 140.773 23.8398 137.737C24.7228 132.599 32.5641 137.063 36.6195 140.08C36.299 140.477 36.0062 140.874 35.7008 141.312C35.1705 142.103 34.7795 142.918 34.4993 143.729C33.0853 144.171 31.6067 144.309 30.0717 143.964ZM49.1156 136.293C75.2579 100.942 102.026 66.1008 129.474 31.7667C129.569 31.7224 129.665 31.6782 129.747 31.6205C139.406 38.9017 149.012 46.2399 158.577 53.6208C173.125 64.8943 187.608 76.2945 201.957 87.837L124.554 189.287C108.303 176.703 91.8903 164.29 75.3052 152.118C73.8163 151.009 71.8993 149.497 69.728 147.826C63.9101 143.361 56.1886 137.827 49.1156 136.293Z" fill="#1A2C90"/>
</g>
<defs>
<clipPath id="clip0_3163_329">
<rect width="143" height="176.064" fill="white" transform="translate(120.801 -0.0012207) rotate(43.3241)"/>
</clipPath>
</defs>
</svg>
