<svg width="154" height="156" viewBox="0 0 154 156" fill="none" xmlns="http://www.w3.org/2000/svg">
<g opacity="0.3" clip-path="url(#clip0_3163_324)">
<path d="M52.7997 134.421C33.9054 130.359 19.7278 113.043 22.0383 93.3262C24.2543 74.208 42.8199 52.7084 63.0374 51.9417C64.8304 46.3964 66.5338 40.8172 68.1485 35.2296L73.9694 40.6092C72.4207 45.8903 70.7824 51.1377 69.0555 56.3766C68.5604 57.8789 67.3858 58.6796 66.155 58.9141C65.8172 59.0183 65.4526 59.0733 65.048 59.0669C52.4787 58.7686 40.2893 68.7185 33.7885 80.3246C56.9156 83.2023 79.9245 86.7302 102.815 90.8832C101.874 82.0519 96.8443 73.7781 88.4332 68.7975C86.4203 68.6766 84.5638 67.1323 85.2673 64.6468L88.333 53.8837L94.18 59.2874C93.8055 60.6071 93.4301 61.9016 93.0555 63.2212C109.994 74.0493 115.756 96.4741 104.025 114.001C93.2472 130.13 71.427 138.431 52.7997 134.421Z" fill="#D4FF8F"/>
<path d="M104.025 114.001C115.756 96.4742 109.994 74.0494 93.0555 63.2213C93.43 61.9016 93.8054 60.6072 94.18 59.2875C97.8727 46.4091 101.552 33.4935 105.219 20.6163C105.538 19.5394 105.345 18.6508 104.881 17.9518C104.58 16.8659 103.793 15.9419 102.391 15.5774C94.5315 13.6054 86.606 11.9398 78.6032 10.6193C76.2403 10.2238 74.6789 11.9656 74.384 13.7999C73.9933 14.2227 73.6693 14.7562 73.5015 15.4341C71.8322 22.0736 70.0603 28.6673 68.1484 35.2297C66.5337 40.8173 64.8303 46.3964 63.0374 51.9418C42.8199 52.7085 24.2542 74.2081 22.0382 93.3263C19.7278 113.043 33.9054 130.359 52.7997 134.421C71.427 138.431 93.2472 130.131 104.025 114.001ZM79.0676 22.3174C79.4275 20.9352 79.7874 19.553 80.1343 18.1587C85.9671 19.1887 91.7551 20.3977 97.4984 21.7858C97.0562 23.3615 96.6018 24.9505 96.1475 26.5394C93.4712 25.8299 90.795 25.1204 88.1195 24.4361C86.5901 24.0271 85.0737 23.6301 83.5573 23.2331C83.1495 23.1257 79.884 22.1655 79.0676 22.3174ZM33.7885 80.3247C40.2892 68.7186 52.4787 58.7687 65.048 59.067C65.4525 59.0734 65.8172 59.0184 66.155 58.9141C67.3857 58.6797 68.5604 57.8789 69.0554 56.3766C70.7824 51.1378 72.4207 45.8904 73.9694 40.6093C75.0987 36.827 76.1768 33.0217 77.2167 29.2056C79.1042 29.7497 81.1342 30.0089 82.7271 30.4276C86.5372 31.4256 90.3604 32.4355 94.1705 33.4335C92.2284 40.2374 90.2872 47.0666 88.333 53.8838L85.2673 64.6468C84.5637 67.1324 86.4202 68.6766 88.4332 68.7976C96.8442 73.7782 101.874 82.052 102.815 90.8833C79.9245 86.7303 56.9155 83.2023 33.7885 80.3247ZM54.3941 127.418C38.5139 123.962 26.5696 109.298 29.2818 92.6468C29.5897 90.8245 30.0864 88.9808 30.7215 87.1179C54.8245 90.0891 78.7989 93.7743 102.669 98.147C101.924 103.289 99.775 108.358 96.0653 112.843C86.3607 124.624 69.1552 130.648 54.3941 127.418Z" fill="#1A2C90"/>
</g>
<defs>
<clipPath id="clip0_3163_324">
<rect width="91" height="127" fill="white" transform="translate(86.197 -0.0012207) rotate(42.7434)"/>
</clipPath>
</defs>
</svg>
