<svg width="255" height="274" viewBox="0 0 255 274" fill="none" xmlns="http://www.w3.org/2000/svg">
<g opacity="0.3" clip-path="url(#clip0_3163_570)">
<path d="M41.8195 171.114L24.0895 191.974C38.7015 204.481 52.4791 217.866 65.2892 232.25C62.5347 235.491 59.3474 238.511 55.6269 241.253L62.6457 247.219C80.5854 232.824 87.5788 210.477 91.2402 188.294C91.8966 184.357 92.479 180.299 93.0588 176.209C110.175 176.449 126.417 174.625 140.511 162.25C158.124 146.814 163.259 124.532 165.535 102.17C173.208 102.464 180.862 102.917 188.15 102.619C197.691 102.209 207.225 100.765 216.196 97.9306L229.823 81.8976C225.787 84.4899 221.499 86.5444 217.032 88.1829C204.713 72.2477 191.754 56.856 178.185 41.9738C179.911 39.0045 181.923 36.2198 184.253 33.6174L177.303 27.71C161.538 45.0405 160.158 69.3384 157.964 93.2381C141.295 93.2011 124.952 95.1453 111.696 106.881C94.1079 122.427 89.5178 144.555 86.0757 167.071C77.6129 166.664 69.1051 166.102 60.7726 166.864C54.2418 167.453 47.8635 168.906 41.8195 171.114ZM174.056 50.6567C185.809 63.6422 197.026 77.0836 207.797 90.9101C203.764 91.8299 199.646 92.5016 195.478 92.9543C186.69 82.811 178.442 72.2752 170.743 61.2665C171.616 57.6312 172.719 54.0734 174.056 50.6567ZM157.074 101.971C156.195 109.89 155.018 117.674 152.961 125.033C146.513 118.465 140.394 111.649 134.568 104.523C141.71 102.485 149.345 101.953 157.074 101.971ZM108.202 124.624C118.214 133.78 128.209 142.921 138.221 152.077C136.668 153.695 134.998 155.243 133.179 156.723C130.567 158.822 127.907 160.526 125.17 161.902C116.92 153.421 109.525 144.315 102.872 134.547C104.365 131.086 106.124 127.764 108.202 124.624ZM76.4078 175.629C79.1887 175.73 81.9722 175.863 84.7531 175.965C83.8411 181.976 82.912 187.973 81.7308 193.814C73.8965 187.625 65.6933 181.975 57.1502 176.829C63.3363 175.741 69.788 175.349 76.4078 175.629Z" fill="#EDC4EA"/>
<path d="M41.8196 171.114C26.2052 176.791 12.6396 187.5 3.40082 201.535C0.27953 206.285 7.11756 212.185 10.2652 207.369C14.264 201.308 18.8981 196.169 24.0209 191.915L24.0896 191.974C38.7015 204.481 52.4791 217.866 65.2892 232.25C62.5348 235.491 59.3474 238.511 55.627 241.253C55.3435 241.482 55.0284 241.714 54.7278 241.929C50.0369 245.257 55.1098 252.712 59.8152 249.367C60.7922 248.67 61.7203 247.96 62.6458 247.219C80.5854 232.824 87.5789 210.477 91.2402 188.294C91.8966 184.357 92.4791 180.299 93.0588 176.209C110.175 176.449 126.417 174.625 140.511 162.25C158.124 146.814 163.259 124.532 165.535 102.171C173.208 102.464 180.862 102.917 188.15 102.619C197.691 102.209 207.225 100.765 216.196 97.9307C227.931 94.244 238.73 88.146 247.388 78.7593C251.302 74.5363 244.438 68.7019 240.523 72.9249C237.252 76.4608 233.677 79.4152 229.823 81.8977C225.787 84.4899 221.499 86.5444 217.032 88.1829C204.713 72.2477 191.754 56.856 178.185 41.9738C179.911 39.0045 181.923 36.2198 184.253 33.6174C186.919 30.6543 190.041 27.9901 193.652 25.6539C198.503 22.5204 193.401 15.0993 188.565 18.2158C184.168 21.0591 180.421 24.2499 177.303 27.7101C161.538 45.0405 160.158 69.3385 157.964 93.2381C141.295 93.2012 124.952 95.1453 111.696 106.881C94.1079 122.427 89.5178 144.555 86.0757 167.071C77.6129 166.664 69.1052 166.102 60.7726 166.864C54.2419 167.453 47.8635 168.906 41.8196 171.114ZM79.4919 203.368C77.4125 211.031 74.6309 218.303 70.5969 224.893C58.3309 211.294 45.3031 198.488 31.4672 186.493C35.7972 183.798 40.4257 181.622 45.2868 179.936C45.6407 180.355 46.0869 180.734 46.6399 181.057C57.974 187.371 68.6229 194.63 78.6987 202.841C78.9561 203.06 79.2253 203.23 79.4919 203.368ZM174.056 50.6567C185.809 63.6422 197.026 77.0836 207.797 90.9101C203.764 91.83 199.646 92.5017 195.478 92.9543C186.69 82.811 178.442 72.2752 170.743 61.2666C171.616 57.6312 172.719 54.0735 174.056 50.6567ZM168.435 73.4064C173.529 80.3504 178.843 87.0702 184.384 93.6607C180.647 93.7453 176.902 93.735 173.227 93.6078C170.943 93.5471 168.626 93.4572 166.325 93.3819C166.875 86.8575 167.47 80.1066 168.435 73.4064ZM157.074 101.971C156.195 109.89 155.018 117.674 152.961 125.033C146.513 118.465 140.394 111.649 134.568 104.523C141.71 102.485 149.345 101.953 157.074 101.971ZM117.726 113.593C120.307 111.321 123.02 109.485 125.858 107.99C133.344 117.232 141.272 126.056 149.69 134.445C148.109 138.183 146.195 141.757 143.883 145.138C133.819 135.938 123.756 126.739 113.707 117.522C114.964 116.181 116.302 114.851 117.726 113.593ZM108.202 124.624C118.214 133.78 128.209 142.921 138.221 152.077C136.668 153.695 134.998 155.243 133.179 156.723C130.567 158.822 127.907 160.526 125.17 161.902C116.92 153.421 109.525 144.316 102.872 134.547C104.365 131.086 106.125 127.764 108.202 124.624ZM99.1638 144.822C104.374 152.011 110.046 158.83 116.121 165.316C109.107 167.169 101.807 167.516 94.3867 167.378C95.5626 159.77 97.0062 152.124 99.1638 144.822ZM76.4078 175.629C79.1887 175.73 81.9723 175.863 84.7532 175.965C83.8412 181.976 82.912 187.973 81.7308 193.814C73.8966 187.625 65.6934 181.975 57.1503 176.829C63.3363 175.741 69.788 175.349 76.4078 175.629Z" fill="#1A2C90"/>
</g>
<defs>
<clipPath id="clip0_3163_570">
<rect width="106.98" height="266.986" fill="white" transform="translate(81.7145 273.68) rotate(-139.637)"/>
</clipPath>
</defs>
</svg>
