<svg width="93" height="237" viewBox="0 0 93 237" fill="none" xmlns="http://www.w3.org/2000/svg">
<g opacity="0.3" clip-path="url(#clip0_3163_344)">
<path d="M25.5323 152.842C25.7184 154.998 26.2126 157.135 26.9689 159.189L23.2348 157.237L25.5323 152.842Z" fill="#B4CBFF"/>
<path d="M37.6273 129.705L41.5249 122.249L49.743 126.544C45.5438 126.548 41.3389 127.628 37.6273 129.705Z" fill="#B4CBFF"/>
<path d="M64.4809 158.212C60.22 165.678 51.1726 168.944 43.1847 166.567C33.0551 165.509 29.2763 151.122 33.1635 143.001C37.3887 134.157 48.0008 129.611 56.8653 134.345C65.128 138.784 69.2982 149.758 64.4809 158.212Z" fill="#9AB6C3"/>
<path d="M76.3505 140.453L73.1668 146.544C72.5653 143.052 71.2275 139.674 69.2416 136.737L76.3505 140.453Z" fill="#B4CBFF"/>
<path d="M59.5784 172.538L58.0604 175.442L55.17 173.931C56.6837 173.623 58.1529 173.172 59.5784 172.538Z" fill="#B4CBFF"/>
<path d="M184.618 83.5064C181.061 84.9448 177.488 86.3751 173.94 87.7978C165.662 76.1955 143.815 86.8204 134.252 90.6153C117.235 97.3292 100.225 104.067 83.1999 110.796C93.1385 98.4436 103.015 86.0582 112.798 73.5842C119.358 65.1818 137.195 45.865 125.627 35.3414L132.459 25.2416C135.004 21.4757 129.496 17.0573 126.934 20.8546L119.541 31.8001C103.902 26.7827 91.0959 51.547 84.0194 61.2787C69.5996 81.0623 55.1954 100.854 40.7755 120.638C40.7107 120.724 40.6853 120.81 40.6204 120.896C34.7287 122.653 29.3004 126.111 25.2051 131.206C14.8125 144.16 16.8016 162.009 27.925 173.42C25.483 177.14 22.7614 180.634 19.7363 183.909C16.6545 187.255 22.1875 191.626 25.261 188.296C28.1975 185.114 30.846 181.722 33.2298 178.151C48.6157 183.996 65.641 182.822 75.698 167.694C79.6856 161.664 81.1324 154.405 80.3643 147.388C101.088 138.835 121.662 129.883 142.009 120.453C150.98 116.308 177.539 108.427 176.429 94.4152C180.033 92.9617 183.638 91.5083 187.234 90.0705C191.467 88.3659 188.851 81.8019 184.618 83.5064ZM79.5632 79.3554C85.1136 71.7439 90.6484 64.1243 96.1987 56.5129C100.443 50.677 106.251 39.2231 114.418 38.5953C121.24 38.0644 123.304 44.6196 121.047 50.1551C119.462 54.0236 116.515 57.3398 113.963 60.6228C108.682 67.4154 103.369 74.1917 98.0334 80.936C88.7214 92.7369 79.3083 104.465 69.8408 116.145C69.09 116.592 68.6278 117.209 68.4163 117.918C67.0165 119.645 65.6404 121.364 64.2249 123.082C59.8502 120.795 55.0664 119.634 50.2687 119.564C60.0388 106.164 69.7932 92.7556 79.5632 79.3554ZM69.0526 164.879C66.2802 168.547 63.0736 171.027 59.5784 172.538C58.1529 173.172 56.6837 173.623 55.17 173.931C48.9721 175.208 42.2156 174.015 35.6905 171.503C35.4961 170.962 35.1743 170.474 34.6537 170.062C34.5607 169.973 34.4431 169.932 34.342 169.859C34.2646 169.778 34.1955 169.682 34.1025 169.594C30.8139 166.675 28.3992 163.075 26.9689 159.189C26.2126 157.135 25.7184 154.998 25.5324 152.842C24.9392 146.556 26.7886 140.088 31.3448 134.835C33.1628 132.727 35.3122 131.013 37.6273 129.705C41.339 127.628 45.5438 126.548 49.7431 126.545C55.3314 126.548 60.9065 128.403 65.336 132.297C66.8413 133.604 68.1454 135.105 69.2416 136.737C71.2275 139.674 72.5653 143.052 73.1667 146.544C74.2721 152.878 73.0253 159.601 69.0526 164.879ZM165.148 101.23C163.478 102.635 161.378 103.456 159.456 104.43C155.733 106.301 151.934 108.013 148.181 109.788C140.237 113.53 132.255 117.193 124.258 120.807C109.206 127.569 94.0476 134.075 78.8146 140.382C77.1005 135.289 74.1465 130.627 70.0814 127.063C71.4648 125.368 72.8171 123.656 74.2005 121.961C89.5554 115.877 104.926 109.802 120.288 103.742C128.3 100.555 136.305 97.3049 144.347 94.2135C148.395 92.6722 152.467 91.1233 156.722 90.2898C158.561 89.9317 160.485 89.6383 162.36 89.8189C165.716 90.1344 166.435 90.51 167.661 93.9095C169.016 97.6355 168.095 98.7129 165.148 101.23Z" fill="#1A2C90"/>
<path d="M56.8653 134.345C48.0008 129.611 37.3887 134.157 33.1635 143.001C29.2763 151.122 33.0551 165.509 43.1847 166.567C51.1726 168.944 60.22 165.678 64.4809 158.212C69.2982 149.758 65.128 138.784 56.8653 134.345ZM47.02 160.257C46.5693 159.902 45.9584 159.662 45.1775 159.634C44.8857 159.621 44.6259 159.585 44.3506 159.541C44.076 159.458 43.8244 159.406 43.5646 159.37C37.5754 157.698 37.7597 147.642 41.0932 143.548C44.7665 139.033 50.9976 138.073 55.4591 141.944C63.9635 149.308 56.8475 161.817 47.02 160.257Z" fill="#1A2C90"/>
</g>
<defs>
<clipPath id="clip0_3163_344">
<rect width="126" height="201" fill="white" transform="translate(93.1162 -0.0012207) rotate(27.598)"/>
</clipPath>
</defs>
</svg>
