<svg width="237" height="239" viewBox="0 0 237 239" fill="none" xmlns="http://www.w3.org/2000/svg">
<g opacity="0.3" clip-path="url(#clip0_3163_355)">
<path d="M162.008 161.754C147.196 170.201 129.794 172.551 112.969 171.41C112.393 176.648 111.806 181.876 111.219 187.104L105.615 182.05C106.026 178.306 106.448 174.572 106.859 170.827C99.9389 169.97 93.3136 168.257 87.1089 165.364L55.1757 136.571C54.7894 133.894 57.9507 131.216 60.0838 133.68C64.0951 138.315 68.176 143.034 72.597 147.353C74.3644 144.956 76.1535 142.558 77.9209 140.161C66.7718 129.505 59.0412 115.427 58.0191 99.956C56.3773 75.0309 71.1025 52.1228 93.8506 42.1645C115.37 32.7406 140.252 37.3426 158.046 51.8284C159.293 50.1467 160.529 48.4765 161.765 46.8063L166.34 50.9314C165.104 52.6017 163.867 54.2719 162.621 55.9536C162.885 56.2126 163.171 56.4704 163.425 56.7408C163.931 57.2599 164.212 57.8455 164.307 58.4301C183.49 76.8491 185.86 107.336 171.298 129.581C157.445 150.74 129.59 165.28 104.621 156.567C96.7205 153.808 89.1814 149.566 82.5578 144.217C80.748 146.639 78.9497 149.07 77.141 151.513C79.5706 153.579 82.1242 155.507 84.8409 157.209C94.0625 162.988 104.858 164.928 115.603 165.43C132.136 166.183 149.391 163.306 163.216 153.699C176.504 144.459 185.675 129.803 189.26 114.122C193.347 96.2961 189.536 78.5602 180.534 63.7297L192.749 74.7439C204.039 106.332 191.833 144.73 162.008 161.754Z" fill="#9AB6C3"/>
<path d="M129.836 212.911C122.796 211.842 115.724 211.015 108.621 210.43C109.494 202.654 110.367 194.878 111.219 187.104C111.806 181.876 112.393 176.648 112.969 171.41C129.794 172.551 147.196 170.201 162.008 161.754C191.833 144.73 204.039 106.332 192.749 74.7438C192.312 73.435 191.8 72.1629 191.266 70.8919C183.178 51.8973 168.105 36.6017 149.464 27.816C146.623 26.4813 144.275 29.6842 145.25 31.9144C145.508 32.4794 145.969 32.9791 146.708 33.3331C146.797 33.372 146.886 33.411 146.965 33.4614C153.094 36.369 158.795 40.0961 163.949 44.4309C163.564 44.6041 163.187 44.9079 162.859 45.3401C162.502 45.8284 162.134 46.3282 161.765 46.8062C160.529 48.4765 159.292 50.1467 158.046 51.8284C140.252 37.3426 115.37 32.7406 93.8505 42.1644C71.1024 52.1227 56.3772 75.0308 58.019 99.9559C59.0411 115.427 66.7717 129.505 77.9208 140.161C76.1534 142.558 74.3643 144.956 72.597 147.353C68.176 143.034 64.095 138.315 60.0837 133.68C57.9506 131.216 54.7893 133.894 55.1756 136.571C55.2489 137.156 55.4964 137.733 55.949 138.266C63.033 146.461 70.2509 154.715 79.2631 160.888C81.8068 162.62 84.414 164.098 87.1088 165.364C93.3135 168.257 99.9388 169.97 106.859 170.827C106.448 174.572 106.026 178.306 105.614 182.05C104.6 191.133 103.597 200.225 102.572 209.319C102.551 209.55 102.551 209.779 102.562 209.997C97.6448 209.678 92.711 209.469 87.7736 209.403C83.7964 209.329 84.1296 215.491 88.0736 215.555C101.664 215.776 115.149 216.919 128.58 218.949C132.475 219.551 133.774 213.511 129.836 212.911ZM150.79 60.9786C140.28 73.1176 129.657 85.1752 118.919 97.1298C115.112 94.154 111.325 91.1554 107.549 88.1453C119.403 75.5968 134.037 65.3469 150.79 60.9786ZM102.964 84.0316L102.747 84.2723C97.9569 80.4314 93.1867 76.5459 88.4589 72.6362C88.7874 72.2258 89.116 71.8154 89.4675 71.4257C103.629 55.2835 126.951 50.0003 147.139 55.6911C130.102 60.7184 115.253 71.0234 102.964 84.0316ZM89.6802 51.228C105.198 41.8376 123.511 41.3281 139.365 47.8703C119.468 45.352 98.4345 51.8679 84.8925 67.3005C84.4905 67.7694 84.0988 68.2268 83.7082 68.706C81.2808 66.6835 78.842 64.6508 76.4136 62.6066C80.1308 58.185 84.5746 54.3146 89.6802 51.228ZM65.053 106.298C62.3291 92.5772 65.3635 78.7481 72.7227 67.5508C75.1741 69.6156 77.6243 71.6587 80.0745 73.7017C69.8224 89.6482 67.9857 110.543 75.1536 127.96C70.169 121.345 66.5635 113.937 65.053 106.298ZM84.8481 77.6526C89.4158 81.4179 93.9927 85.1499 98.612 88.8579C89.9789 98.8233 82.2999 110.605 80.0902 123.474C74.7288 108.538 76.3426 91.225 84.8481 77.6526ZM103.403 92.7205C107.179 95.7306 110.966 98.7293 114.773 101.705C105.181 112.343 95.4967 122.899 85.7315 133.361C84.7482 118.009 93.4674 104.13 103.403 92.7205ZM84.8409 157.209C82.1241 155.507 79.5705 153.579 77.1409 151.513C78.9496 149.07 80.748 146.638 82.5578 144.217C89.1813 149.566 96.7204 153.808 104.621 156.567C129.59 165.28 157.445 150.74 171.298 129.581C185.86 107.336 183.49 76.8491 164.307 58.43C164.212 57.8455 163.931 57.2599 163.425 56.7408C163.171 56.4703 162.885 56.2125 162.621 55.9535C163.867 54.2718 165.104 52.6016 166.34 50.9314C166.709 50.4534 167.077 49.9536 167.434 49.4652C167.762 49.033 167.935 48.5654 168.032 48.1126C172.863 52.781 177.081 58.0386 180.534 63.7297C189.536 78.5601 193.347 96.2961 189.26 114.122C185.675 129.803 176.504 144.459 163.216 153.699C149.391 163.306 132.136 166.183 115.603 165.43C104.858 164.928 94.0624 162.988 84.8409 157.209ZM134.931 117.179C138.802 120.108 142.682 123.004 146.582 125.876C139.6 135.045 131.088 143.082 119.522 145.561C110.829 147.428 101.672 146.155 93.8284 142.159C109.86 137.534 123.902 128.767 134.931 117.179ZM91.2596 136.475C100.806 126.211 110.272 115.895 119.658 105.486C123.101 108.154 126.542 110.799 129.994 113.434C119.521 124.151 106.239 132.212 91.2596 136.475ZM116.325 152.28C129.611 150.792 140.055 143.394 148.497 133.319C149.548 132.084 150.554 130.808 151.526 129.523C154.042 131.355 156.559 133.209 159.085 135.03C147.296 147.346 130.194 155.412 113.579 152.589C113.436 152.564 113.281 152.528 113.138 152.503C114.194 152.458 115.261 152.402 116.325 152.28ZM155.06 124.5C165.113 109.164 170.628 90.8374 167.924 72.9774C175.943 86.7134 176.977 104.149 170.121 119.042C168.301 122.992 165.928 126.797 163.118 130.373C160.421 128.42 157.735 126.455 155.06 124.5ZM150.127 120.863C146.408 118.112 142.72 115.348 139.032 112.563C149.992 99.3957 157.359 83.1759 159.828 65.4902C165.769 84.3363 160.899 104.387 150.127 120.863ZM134.151 108.869C130.688 106.224 127.235 103.568 123.804 100.911C133.767 89.8163 143.627 78.6505 153.395 67.3805C150.802 83.0204 143.999 97.2342 134.151 108.869Z" fill="#1A2C90"/>
</g>
<defs>
<clipPath id="clip0_3163_355">
<rect width="151" height="185" fill="white" transform="translate(124.371 0.243896) rotate(42.0404)"/>
</clipPath>
</defs>
</svg>
