<svg width="320" height="191" viewBox="0 0 320 191" fill="none" xmlns="http://www.w3.org/2000/svg">
<path d="M307.595 30.4608C298.499 33.2873 289.388 36.1138 280.292 38.9404C279.005 39.3398 279.552 41.4443 280.854 41.0295C289.95 38.203 299.061 35.3765 308.157 32.5499C309.429 32.1659 308.881 30.0614 307.595 30.4608Z" fill="#00477C"/>
<path d="M280.048 38.6961C258.44 31.0767 236.816 23.4573 215.208 15.838C214.054 15.4386 213.418 17.1898 214.409 17.8197C231.684 28.7571 248.944 39.7099 266.219 50.6474C267.373 51.3847 268.423 49.4953 267.269 48.7733C249.994 37.8358 232.734 26.883 215.459 15.9455C215.193 16.6061 214.927 17.2666 214.661 17.9272C236.269 25.5465 257.892 33.1659 279.501 40.7853C280.773 41.2461 281.32 39.1415 280.048 38.6961Z" fill="#00477C"/>
<path d="M308.886 27.451C270.756 19.2633 232.479 11.8283 194.084 5.14598C192.768 4.91556 192.206 7.00471 193.522 7.23514C231.917 13.9174 270.194 21.3525 308.324 29.5402C309.655 29.8167 310.217 27.7275 308.886 27.451Z" fill="#00477C"/>
<path d="M266.864 49.5852C256.319 50.2918 245.803 51.3518 235.317 52.765C234.001 52.9494 233.986 55.1154 235.317 54.931C245.803 53.5178 256.304 52.4578 266.864 51.7512C268.195 51.659 268.21 49.493 266.864 49.5852Z" fill="#00477C"/>
<path d="M190.74 7.40477C205.707 24.9016 221.548 41.5075 238.275 57.207C239.266 58.1441 240.76 56.6079 239.754 55.6709C223.027 39.9867 207.186 23.3808 192.219 5.86861C191.331 4.82402 189.852 6.36018 190.74 7.40477Z" fill="#00477C"/>
<path d="M281.73 41.8135C281.76 51.9061 282.307 61.9526 283.417 71.9837C283.564 73.3509 285.665 73.3662 285.502 71.9837C284.407 61.9526 283.845 51.9061 283.816 41.8135C283.816 40.4156 281.73 40.4156 281.73 41.8135Z" fill="#00477C"/>
<path d="M267.178 50.2609C272.296 57.8649 277.398 65.4843 282.516 73.0883C283.285 74.225 285.089 73.1497 284.32 71.9976C279.203 64.3936 274.1 56.7742 268.983 49.1702C268.228 48.0335 266.409 49.1088 267.178 50.2609Z" fill="#00477C"/>
<path d="M283.534 71.7377C274.319 64.3334 264.839 57.3285 255.077 50.7383C253.939 49.9703 252.903 51.8597 254.027 52.6125C263.641 59.1104 272.988 65.9924 282.07 73.2738C283.12 74.1187 284.599 72.5979 283.534 71.7377Z" fill="#00477C"/>
<path d="M1.75227 189.392C-1.02828 164.645 9.91641 139.697 26.7624 121.97C43.6084 104.243 65.8085 92.9674 88.5262 85.0101C96.7496 82.1375 105.18 79.6028 112.664 75.0251C126.537 66.5455 135.84 51.7062 141.741 36.1603C146.193 24.424 147.155 7.66448 136.062 2.53371C128.312 -1.04554 118.772 4.30031 115.015 12.1962C111.274 20.092 112.117 29.5394 114.439 38.0036C120.946 61.7373 138.147 81.2005 158.351 94.1657C178.569 107.131 201.715 114.274 224.877 119.804C240.495 123.537 256.498 126.625 272.457 125.165C288.415 123.706 304.507 117.223 314.905 104.55C316.931 102.077 318.824 99.0045 318.247 95.8093C317.789 93.2286 315.851 91.2623 314.003 89.4804C307.303 82.9824 300.588 76.4691 293.888 69.9712" stroke="#00477C" stroke-width="1.5" stroke-miterlimit="10" stroke-linecap="round" stroke-dasharray="9.74 9.74"/>
<path d="M235.407 23.7793C236.974 26.8824 238.527 29.97 240.095 33.0731C240.716 34.3174 242.521 33.2114 241.9 31.9824C240.332 28.8794 238.779 25.7917 237.211 22.6887C236.59 21.4444 234.785 22.5504 235.407 23.7793Z" fill="#00477C"/>
<path d="M243.338 24.5173C245.482 29.6174 247.627 34.7021 249.771 39.8021C250.304 41.0771 252.108 39.9711 251.576 38.7115C249.431 33.6114 247.287 28.5267 245.142 23.4267C244.61 22.1363 242.805 23.2423 243.338 24.5173Z" fill="#00477C"/>
<path d="M255.581 31.9368C257.607 36.5299 259.618 41.1384 261.645 45.7315C262.207 47.0065 264.011 45.9005 263.449 44.6408C261.423 40.0477 259.411 35.4393 257.385 30.8461C256.823 29.5711 255.019 30.6771 255.581 31.9368Z" fill="#00477C"/>
<path d="M265.123 35.7924C267.327 42.6898 269.693 49.5256 272.207 56.3001C272.681 57.5905 274.707 57.0375 274.219 55.7164C271.704 48.9419 269.338 42.106 267.134 35.2087C266.72 33.8876 264.694 34.456 265.123 35.7924Z" fill="#00477C"/>
<path d="M272.886 41.4139C274.927 47.8657 276.953 54.3176 278.995 60.7695C279.409 62.0906 281.435 61.5222 281.006 60.1857C278.965 53.7339 276.939 47.282 274.898 40.8302C274.483 39.5244 272.457 40.0928 272.886 41.4139Z" fill="#00477C"/>
<path d="M280.118 42.1357C281.049 45.4538 281.656 48.818 281.907 52.2743C282.011 53.6569 284.096 53.6722 283.993 52.2743C283.726 48.6336 283.105 45.0697 282.129 41.5673C281.759 40.2308 279.733 40.7992 280.118 42.1357Z" fill="#00477C"/>
</svg>
