<svg width="710" height="515" viewBox="0 0 710 515" fill="none" xmlns="http://www.w3.org/2000/svg">
<path d="M627.436 17.5964L613.724 56.0843L633.702 33.4577L708.616 35.6523L627.436 17.5964Z" fill="#002C44"/>
<path d="M614.145 0.085022C614.145 0.085022 629.358 13.7215 627.289 18.0501L707.9 35.2129C707.886 35.2129 669.11 6.97137 614.145 0.085022Z" fill="#FF7B3A"/>
<path d="M613.113 56.8254C612.486 58.0514 643.67 53.5261 643.67 53.5261L632.974 33.0032C632.974 33.0032 618.635 46.0949 613.113 56.8254Z" fill="#FBC949"/>
<path d="M632.975 33.0037C632.975 33.0037 647.634 57.9156 639.43 72.3845L709.185 35.5312C709.185 35.5312 640.392 31.5356 632.975 33.0037Z" fill="#F75E28"/>
<path d="M0 380.033C1.93983 447.142 57.6983 508.332 122.233 512.9C186.768 517.467 250.475 463.692 258.211 397.025C260.127 380.451 258.708 362.673 249.86 348.726C241.013 334.779 223.318 326.037 208.201 331.808C191.168 338.29 183.693 361.126 189.394 379.002C195.119 396.878 210.851 409.647 227.765 416.473C263.605 430.936 307.322 421.236 334.314 392.802C364.689 360.782 371.478 312.95 382.952 269.635C408.099 174.559 450.538 27.3032 589 40.3664" stroke="#FBCD5F" stroke-width="3" stroke-miterlimit="10" stroke-linecap="round" stroke-linejoin="round" stroke-dasharray="8 8"/>
</svg>
