<svg width="96" height="96" viewBox="0 0 96 96" fill="none" xmlns="http://www.w3.org/2000/svg">
<path d="M87.875 46.7917H87.1983C84.4192 34.37 73.3267 25.0417 60.0833 25.0417H51.625V21.9484C55.83 20.45 58.875 16.4625 58.875 11.75C58.875 5.75669 53.9933 0.875025 48 0.875025C42.0067 0.875025 37.125 5.75669 37.125 11.75C37.125 16.4625 40.17 20.45 44.375 21.9484V25.0417H35.9167C22.6733 25.0417 11.5808 34.37 8.80167 46.7917H8.125C4.1375 46.7917 0.875 50.0542 0.875 54.0417V61.2917C0.875 65.2792 4.1375 68.5417 8.125 68.5417H9.45417C12.3058 77.435 19.5075 84.3467 28.5458 86.86C27.8692 88.2859 27.4583 89.8325 27.4583 91.5C27.4583 93.5059 29.0775 95.125 31.0833 95.125H64.9167C66.9225 95.125 68.5417 93.5059 68.5417 91.5C68.5417 89.8325 68.1308 88.2617 67.4542 86.86C76.4925 84.3709 83.6942 77.435 86.5458 68.5417H87.875C91.8625 68.5417 95.125 65.2792 95.125 61.2917V54.0417C95.125 50.0542 91.8625 46.7917 87.875 46.7917ZM48 8.12502C50.0058 8.12502 51.625 9.74419 51.625 11.75C51.625 13.7559 50.0058 15.375 48 15.375C45.9942 15.375 44.375 13.7559 44.375 11.75C44.375 9.74419 45.9942 8.12502 48 8.12502ZM60.0833 80.625H35.9167C24.5825 80.625 15.375 71.4175 15.375 60.0834V52.8334C15.375 41.4992 24.5825 32.2917 35.9167 32.2917H60.0833C71.4175 32.2917 80.625 41.4992 80.625 52.8334V60.0834C80.625 71.4175 71.4175 80.625 60.0833 80.625Z" fill="#344054"/>
<path d="M34.7083 41.9584C30.7208 41.9584 27.4583 45.2209 27.4583 49.2084V56.4584C27.4583 60.4459 30.7208 63.7084 34.7083 63.7084C38.6958 63.7084 41.9583 60.4459 41.9583 56.4584V49.2084C41.9583 45.2209 38.6958 41.9584 34.7083 41.9584Z" fill="#344054"/>
<path d="M61.2917 41.9584C57.3042 41.9584 54.0417 45.2209 54.0417 49.2084V56.4584C54.0417 60.4459 57.3042 63.7084 61.2917 63.7084C65.2792 63.7084 68.5417 60.4459 68.5417 56.4584V49.2084C68.5417 45.2209 65.2792 41.9584 61.2917 41.9584Z" fill="#344054"/>
<path d="M22.6975 7.93169L29.9475 10.3484C30.3342 10.4692 30.7208 10.5417 31.0833 10.5417C32.6058 10.5417 34.0075 9.57502 34.515 8.05252C35.1433 6.14336 34.1283 4.08919 32.2192 3.46086L24.9692 1.04419C23.0842 0.415859 21.03 1.43086 20.3775 3.34003C19.725 5.24919 20.7642 7.30336 22.6733 7.93169H22.6975Z" fill="#344054"/>
<path d="M23.8333 22.625C24.22 22.625 24.6067 22.5767 24.9692 22.4317L32.2192 20.015C34.1283 19.3867 35.1433 17.3325 34.515 15.4234C33.8867 13.5142 31.8325 12.4992 29.9233 13.1275L22.6733 15.5442C20.7642 16.1725 19.7492 18.2267 20.3775 20.1359C20.885 21.6584 22.2867 22.625 23.8092 22.625H23.8333Z" fill="#344054"/>
<path d="M64.9167 10.5417C65.3033 10.5417 65.69 10.4934 66.0525 10.3484L73.3025 7.93169C75.2117 7.30336 76.2267 5.24919 75.5983 3.34003C74.97 1.43086 72.9158 0.415859 71.0067 1.04419L63.7567 3.46086C61.8475 4.08919 60.8325 6.14336 61.4608 8.05252C61.9683 9.57502 63.37 10.5417 64.8925 10.5417H64.9167Z" fill="#344054"/>
<path d="M63.7808 20.015L71.0308 22.4317C71.4175 22.5525 71.8042 22.625 72.1667 22.625C73.6892 22.625 75.0908 21.6584 75.5983 20.1359C76.2267 18.2267 75.2117 16.1725 73.3025 15.5442L66.0525 13.1275C64.1675 12.4992 62.0892 13.5142 61.4608 15.4234C60.8325 17.3325 61.8475 19.3867 63.7567 20.015H63.7808Z" fill="#344054"/>
</svg>
