<svg width="28" height="28" viewBox="0 0 28 28" fill="none" xmlns="http://www.w3.org/2000/svg">
<path d="M12.8334 8.16659H15.1667V10.4999H12.8334V8.16659ZM12.8334 12.8333H15.1667V19.8333H12.8334V12.8333ZM14 2.33325C7.56004 2.33325 2.33337 7.55992 2.33337 13.9999C2.33337 20.4399 7.56004 25.6666 14 25.6666C20.44 25.6666 25.6667 20.4399 25.6667 13.9999C25.6667 7.55992 20.44 2.33325 14 2.33325ZM14 23.3333C8.85504 23.3333 4.66671 19.1449 4.66671 13.9999C4.66671 8.85492 8.85504 4.66659 14 4.66659C19.145 4.66659 23.3334 8.85492 23.3334 13.9999C23.3334 19.1449 19.145 23.3333 14 23.3333Z" fill="white"/>
</svg>
